<svg width="100%" viewBox="0 0 680 624" role="img" xmlns="http://www.w3.org/2000/svg">
<title>냠냠투게더 데이터베이스 ERD</title>
<desc>nyamnyam ERD</desc>
<style>
text{font-family:-apple-system,"Helvetica Neue","Apple SD Gothic Neo","Malgun Gothic",sans-serif;}
.t{font-size:14px;font-weight:400;}
.ts{font-size:12px;font-weight:400;}
.th{font-size:14px;font-weight:500;}
</style>

<rect x="0" y="0" width="680" height="624" fill="#ffffff" />
<text class="th" x="40" y="34" style="font-size:20px" fill="#2c2a28">냠냠투게더</text><text class="ts" x="40" y="52" fill="#6c7178">데이터베이스 ERD · PostgreSQL + RLS</text>
<path d="M202,118 C226,118 228,96 250,96" fill="none" stroke="#cf9457" stroke-width="1.3" opacity="0.7" />
<path d="M202,408 C232,408 232,96 250,96" fill="none" stroke="#cf9457" stroke-width="1.3" opacity="0.7" />
<path d="M250,304 C238,316 238,370 250,382" fill="none" stroke="#cf9457" stroke-width="1.3" opacity="0.7" />
<path d="M202,552 C232,552 232,382 250,382" fill="none" stroke="#cf9457" stroke-width="1.3" opacity="0.7" />
<path d="M450,414 C463,414 463,152 472,152" fill="none" stroke="#cf9457" stroke-width="1.3" opacity="0.7" />
<path d="M640,200 C656,200 656,424 640,424" fill="none" stroke="#cf9457" stroke-width="1.3" opacity="0.7" />
<circle cx="250" cy="96" r="3" fill="#cf9457" />
<circle cx="250" cy="96" r="3" fill="#cf9457" />
<circle cx="250" cy="382" r="3" fill="#cf9457" />
<circle cx="250" cy="382" r="3" fill="#cf9457" />
<circle cx="472" cy="152" r="3" fill="#cf9457" />
<circle cx="640" cy="424" r="3" fill="#cf9457" />
<rect x="24" y="70" width="178" height="88" rx="9" fill="#ffffff" stroke="#e7ddcf" />
<path d="M24,79 a9,9 0 0 1 9,-9 h160 a9,9 0 0 1 9,9 v15 h-178 z" fill="#fbf0e3" />
<line x1="24" y1="94" x2="202" y2="94" stroke="#f0d8bd" />
<rect x="36" y="79" width="7" height="7" rx="1.5" fill="#c4651f" />
<text class="th" x="50" y="87" fill="#c4651f">participants</text>
<circle cx="39" cy="102" r="2.6" fill="#7a8088" />
<text class="ts" x="49" y="105.5" fill="#2c2a28" style="font-size:11px">id</text>
<rect x="171" y="97" width="22" height="10.5" rx="2.5" fill="#fbf0e3" stroke="#f0d8bd" />
<text class="ts" x="182.0" y="105.5" text-anchor="middle" fill="#c4651f" style="font-size:9.5px">PK</text>
<circle cx="39" cy="118" r="2.6" fill="none" stroke="#a9aeb4" />
<text class="ts" x="49" y="121.5" fill="#6c7178" style="font-size:11px">session_id</text>
<rect x="171" y="113" width="22" height="10.5" rx="2.5" fill="#fbf0e3" stroke="#f0d8bd" />
<text class="ts" x="182.0" y="121.5" text-anchor="middle" fill="#c4651f" style="font-size:9.5px">FK</text>
<circle cx="39" cy="134" r="2.6" fill="#7a8088" />
<text class="ts" x="49" y="137.5" fill="#2c2a28" style="font-size:11px">user_key</text>
<circle cx="39" cy="150" r="2.6" fill="#7a8088" />
<text class="ts" x="49" y="153.5" fill="#2c2a28" style="font-size:11px">joined_at</text>
<rect x="250" y="64" width="200" height="248" rx="9" fill="#ffffff" stroke="#e7ddcf" />
<path d="M250,73 a9,9 0 0 1 9,-9 h182 a9,9 0 0 1 9,9 v15 h-200 z" fill="#fbf0e3" />
<line x1="250" y1="88" x2="450" y2="88" stroke="#f0d8bd" />
<rect x="262" y="73" width="7" height="7" rx="1.5" fill="#c4651f" />
<text class="th" x="276" y="81" fill="#c4651f">sessions</text>
<circle cx="265" cy="96" r="2.6" fill="#7a8088" />
<text class="ts" x="275" y="99.5" fill="#2c2a28" style="font-size:11px">id</text>
<rect x="419" y="91" width="22" height="10.5" rx="2.5" fill="#fbf0e3" stroke="#f0d8bd" />
<text class="ts" x="430.0" y="99.5" text-anchor="middle" fill="#c4651f" style="font-size:9.5px">PK</text>
<circle cx="265" cy="112" r="2.6" fill="#7a8088" />
<text class="ts" x="275" y="115.5" fill="#2c2a28" style="font-size:11px">host_user_key</text>
<circle cx="265" cy="128" r="2.6" fill="#7a8088" />
<text class="ts" x="275" y="131.5" fill="#2c2a28" style="font-size:11px">title</text>
<circle cx="265" cy="144" r="2.6" fill="none" stroke="#a9aeb4" />
<text class="ts" x="275" y="147.5" fill="#6c7178" style="font-size:11px">purpose</text>
<circle cx="265" cy="160" r="2.6" fill="#7a8088" />
<text class="ts" x="275" y="163.5" fill="#2c2a28" style="font-size:11px">min_participants</text>
<circle cx="265" cy="176" r="2.6" fill="#7a8088" />
<text class="ts" x="275" y="179.5" fill="#2c2a28" style="font-size:11px">station_id</text>
<circle cx="265" cy="192" r="2.6" fill="none" stroke="#a9aeb4" />
<text class="ts" x="275" y="195.5" fill="#6c7178" style="font-size:11px">station_lat</text>
<circle cx="265" cy="208" r="2.6" fill="none" stroke="#a9aeb4" />
<text class="ts" x="275" y="211.5" fill="#6c7178" style="font-size:11px">station_lng</text>
<circle cx="265" cy="224" r="2.6" fill="none" stroke="#a9aeb4" />
<text class="ts" x="275" y="227.5" fill="#6c7178" style="font-size:11px">deadline</text>
<circle cx="265" cy="240" r="2.6" fill="#7a8088" />
<text class="ts" x="275" y="243.5" fill="#2c2a28" style="font-size:11px">status</text>
<circle cx="265" cy="256" r="2.6" fill="#7a8088" />
<text class="ts" x="275" y="259.5" fill="#2c2a28" style="font-size:11px">sort_mode</text>
<circle cx="265" cy="272" r="2.6" fill="none" stroke="#a9aeb4" />
<text class="ts" x="275" y="275.5" fill="#6c7178" style="font-size:11px">sort_seed</text>
<circle cx="265" cy="288" r="2.6" fill="#7a8088" />
<text class="ts" x="275" y="291.5" fill="#2c2a28" style="font-size:11px">created_at</text>
<circle cx="265" cy="304" r="2.6" fill="none" stroke="#a9aeb4" />
<text class="ts" x="275" y="307.5" fill="#6c7178" style="font-size:11px">winner_recommendation_id</text>
<rect x="419" y="299" width="22" height="10.5" rx="2.5" fill="#fbf0e3" stroke="#f0d8bd" />
<text class="ts" x="430.0" y="307.5" text-anchor="middle" fill="#c4651f" style="font-size:9.5px">FK</text>
<rect x="24" y="360" width="178" height="216" rx="9" fill="#ffffff" stroke="#e7ddcf" />
<path d="M24,369 a9,9 0 0 1 9,-9 h160 a9,9 0 0 1 9,9 v15 h-178 z" fill="#fbf0e3" />
<line x1="24" y1="384" x2="202" y2="384" stroke="#f0d8bd" />
<rect x="36" y="369" width="7" height="7" rx="1.5" fill="#c4651f" />
<text class="th" x="50" y="377" fill="#c4651f">votes</text>
<circle cx="39" cy="392" r="2.6" fill="#7a8088" />
<text class="ts" x="49" y="395.5" fill="#2c2a28" style="font-size:11px">id</text>
<rect x="171" y="387" width="22" height="10.5" rx="2.5" fill="#fbf0e3" stroke="#f0d8bd" />
<text class="ts" x="182.0" y="395.5" text-anchor="middle" fill="#c4651f" style="font-size:9.5px">PK</text>
<circle cx="39" cy="408" r="2.6" fill="none" stroke="#a9aeb4" />
<text class="ts" x="49" y="411.5" fill="#6c7178" style="font-size:11px">session_id</text>
<rect x="171" y="403" width="22" height="10.5" rx="2.5" fill="#fbf0e3" stroke="#f0d8bd" />
<text class="ts" x="182.0" y="411.5" text-anchor="middle" fill="#c4651f" style="font-size:9.5px">FK</text>
<circle cx="39" cy="424" r="2.6" fill="#7a8088" />
<text class="ts" x="49" y="427.5" fill="#2c2a28" style="font-size:11px">user_key</text>
<circle cx="39" cy="440" r="2.6" fill="#7a8088" />
<text class="ts" x="49" y="443.5" fill="#2c2a28" style="font-size:11px">stage</text>
<circle cx="39" cy="456" r="2.6" fill="none" stroke="#a9aeb4" />
<text class="ts" x="49" y="459.5" fill="#6c7178" style="font-size:11px">drink</text>
<circle cx="39" cy="472" r="2.6" fill="none" stroke="#a9aeb4" />
<text class="ts" x="49" y="475.5" fill="#6c7178" style="font-size:11px">budget_min</text>
<circle cx="39" cy="488" r="2.6" fill="none" stroke="#a9aeb4" />
<text class="ts" x="49" y="491.5" fill="#6c7178" style="font-size:11px">budget_max</text>
<circle cx="39" cy="504" r="2.6" fill="none" stroke="#a9aeb4" />
<text class="ts" x="49" y="507.5" fill="#6c7178" style="font-size:11px">categories</text>
<circle cx="39" cy="520" r="2.6" fill="none" stroke="#a9aeb4" />
<text class="ts" x="49" y="523.5" fill="#6c7178" style="font-size:11px">mood</text>
<circle cx="39" cy="536" r="2.6" fill="none" stroke="#a9aeb4" />
<text class="ts" x="49" y="539.5" fill="#6c7178" style="font-size:11px">sort_pref</text>
<circle cx="39" cy="552" r="2.6" fill="none" stroke="#a9aeb4" />
<text class="ts" x="49" y="555.5" fill="#6c7178" style="font-size:11px">recommendation_id</text>
<rect x="171" y="547" width="22" height="10.5" rx="2.5" fill="#fbf0e3" stroke="#f0d8bd" />
<text class="ts" x="182.0" y="555.5" text-anchor="middle" fill="#c4651f" style="font-size:9.5px">FK</text>
<circle cx="39" cy="568" r="2.6" fill="#7a8088" />
<text class="ts" x="49" y="571.5" fill="#2c2a28" style="font-size:11px">created_at</text>
<rect x="250" y="350" width="200" height="168" rx="9" fill="#ffffff" stroke="#e7ddcf" />
<path d="M250,359 a9,9 0 0 1 9,-9 h182 a9,9 0 0 1 9,9 v15 h-200 z" fill="#fbf0e3" />
<line x1="250" y1="374" x2="450" y2="374" stroke="#f0d8bd" />
<rect x="262" y="359" width="7" height="7" rx="1.5" fill="#c4651f" />
<text class="th" x="276" y="367" fill="#c4651f">recommendations</text>
<circle cx="265" cy="382" r="2.6" fill="#7a8088" />
<text class="ts" x="275" y="385.5" fill="#2c2a28" style="font-size:11px">id</text>
<rect x="419" y="377" width="22" height="10.5" rx="2.5" fill="#fbf0e3" stroke="#f0d8bd" />
<text class="ts" x="430.0" y="385.5" text-anchor="middle" fill="#c4651f" style="font-size:9.5px">PK</text>
<circle cx="265" cy="398" r="2.6" fill="#7a8088" />
<text class="ts" x="275" y="401.5" fill="#2c2a28" style="font-size:11px">session_id</text>
<rect x="419" y="393" width="22" height="10.5" rx="2.5" fill="#fbf0e3" stroke="#f0d8bd" />
<text class="ts" x="430.0" y="401.5" text-anchor="middle" fill="#c4651f" style="font-size:9.5px">FK</text>
<circle cx="265" cy="414" r="2.6" fill="#7a8088" />
<text class="ts" x="275" y="417.5" fill="#2c2a28" style="font-size:11px">place_id</text>
<rect x="419" y="409" width="22" height="10.5" rx="2.5" fill="#fbf0e3" stroke="#f0d8bd" />
<text class="ts" x="430.0" y="417.5" text-anchor="middle" fill="#c4651f" style="font-size:9.5px">FK</text>
<circle cx="265" cy="430" r="2.6" fill="none" stroke="#a9aeb4" />
<text class="ts" x="275" y="433.5" fill="#6c7178" style="font-size:11px">place_type</text>
<circle cx="265" cy="446" r="2.6" fill="#7a8088" />
<text class="ts" x="275" y="449.5" fill="#2c2a28" style="font-size:11px">rank</text>
<circle cx="265" cy="462" r="2.6" fill="#7a8088" />
<text class="ts" x="275" y="465.5" fill="#2c2a28" style="font-size:11px">relaxed</text>
<circle cx="265" cy="478" r="2.6" fill="none" stroke="#a9aeb4" />
<text class="ts" x="275" y="481.5" fill="#6c7178" style="font-size:11px">review_count_at_agg</text>
<circle cx="265" cy="494" r="2.6" fill="none" stroke="#a9aeb4" />
<text class="ts" x="275" y="497.5" fill="#6c7178" style="font-size:11px">rating_at_agg</text>
<circle cx="265" cy="510" r="2.6" fill="#7a8088" />
<text class="ts" x="275" y="513.5" fill="#2c2a28" style="font-size:11px">created_at</text>
<rect x="472" y="120" width="168" height="232" rx="9" fill="#ffffff" stroke="#e7ddcf" />
<path d="M472,129 a9,9 0 0 1 9,-9 h150 a9,9 0 0 1 9,9 v15 h-168 z" fill="#fbf0e3" />
<line x1="472" y1="144" x2="640" y2="144" stroke="#f0d8bd" />
<rect x="484" y="129" width="7" height="7" rx="1.5" fill="#c4651f" />
<text class="th" x="498" y="137" fill="#c4651f">places</text>
<circle cx="487" cy="152" r="2.6" fill="#7a8088" />
<text class="ts" x="497" y="155.5" fill="#2c2a28" style="font-size:11px">id</text>
<rect x="609" y="147" width="22" height="10.5" rx="2.5" fill="#fbf0e3" stroke="#f0d8bd" />
<text class="ts" x="620.0" y="155.5" text-anchor="middle" fill="#c4651f" style="font-size:9.5px">PK</text>
<circle cx="487" cy="168" r="2.6" fill="#7a8088" />
<text class="ts" x="497" y="171.5" fill="#2c2a28" style="font-size:11px">source</text>
<circle cx="487" cy="184" r="2.6" fill="#7a8088" />
<text class="ts" x="497" y="187.5" fill="#2c2a28" style="font-size:11px">google_place_id</text>
<rect x="615" y="179" width="16" height="10.5" rx="2.5" fill="#fbf0e3" stroke="#f0d8bd" />
<text class="ts" x="623.0" y="187.5" text-anchor="middle" fill="#c4651f" style="font-size:9.5px">U</text>
<circle cx="487" cy="200" r="2.6" fill="#7a8088" />
<text class="ts" x="497" y="203.5" fill="#2c2a28" style="font-size:11px">station_id</text>
<rect x="609" y="195" width="22" height="10.5" rx="2.5" fill="#fbf0e3" stroke="#f0d8bd" />
<text class="ts" x="620.0" y="203.5" text-anchor="middle" fill="#c4651f" style="font-size:9.5px">FK</text>
<circle cx="487" cy="216" r="2.6" fill="none" stroke="#a9aeb4" />
<text class="ts" x="497" y="219.5" fill="#6c7178" style="font-size:11px">place_type</text>
<circle cx="487" cy="232" r="2.6" fill="none" stroke="#a9aeb4" />
<text class="ts" x="497" y="235.5" fill="#6c7178" style="font-size:11px">name</text>
<circle cx="487" cy="248" r="2.6" fill="none" stroke="#a9aeb4" />
<text class="ts" x="497" y="251.5" fill="#6c7178" style="font-size:11px">lat</text>
<circle cx="487" cy="264" r="2.6" fill="none" stroke="#a9aeb4" />
<text class="ts" x="497" y="267.5" fill="#6c7178" style="font-size:11px">lng</text>
<circle cx="487" cy="280" r="2.6" fill="none" stroke="#a9aeb4" />
<text class="ts" x="497" y="283.5" fill="#6c7178" style="font-size:11px">category</text>
<circle cx="487" cy="296" r="2.6" fill="none" stroke="#a9aeb4" />
<text class="ts" x="497" y="299.5" fill="#6c7178" style="font-size:11px">price_level</text>
<circle cx="487" cy="312" r="2.6" fill="none" stroke="#a9aeb4" />
<text class="ts" x="497" y="315.5" fill="#6c7178" style="font-size:11px">open_date</text>
<circle cx="487" cy="328" r="2.6" fill="none" stroke="#a9aeb4" />
<text class="ts" x="497" y="331.5" fill="#6c7178" style="font-size:11px">status</text>
<circle cx="487" cy="344" r="2.6" fill="#7a8088" />
<text class="ts" x="497" y="347.5" fill="#2c2a28" style="font-size:11px">created_at</text>
<rect x="472" y="392" width="168" height="104" rx="9" fill="#ffffff" stroke="#e7ddcf" />
<path d="M472,401 a9,9 0 0 1 9,-9 h150 a9,9 0 0 1 9,9 v15 h-168 z" fill="#fbf0e3" />
<line x1="472" y1="416" x2="640" y2="416" stroke="#f0d8bd" />
<rect x="484" y="401" width="7" height="7" rx="1.5" fill="#c4651f" />
<text class="th" x="498" y="409" fill="#c4651f">station_places</text>
<circle cx="487" cy="424" r="2.6" fill="#7a8088" />
<text class="ts" x="497" y="427.5" fill="#2c2a28" style="font-size:11px">station_id</text>
<rect x="609" y="419" width="22" height="10.5" rx="2.5" fill="#fbf0e3" stroke="#f0d8bd" />
<text class="ts" x="620.0" y="427.5" text-anchor="middle" fill="#c4651f" style="font-size:9.5px">PK</text>
<circle cx="487" cy="440" r="2.6" fill="#7a8088" />
<text class="ts" x="497" y="443.5" fill="#2c2a28" style="font-size:11px">station_lat</text>
<circle cx="487" cy="456" r="2.6" fill="#7a8088" />
<text class="ts" x="497" y="459.5" fill="#2c2a28" style="font-size:11px">station_lng</text>
<circle cx="487" cy="472" r="2.6" fill="none" stroke="#a9aeb4" />
<text class="ts" x="497" y="475.5" fill="#6c7178" style="font-size:11px">places_discovered_at</text>
<circle cx="487" cy="488" r="2.6" fill="#7a8088" />
<text class="ts" x="497" y="491.5" fill="#2c2a28" style="font-size:11px">place_count</text>
<circle cx="46" cy="600" r="2.6" fill="#7a8088" /><text class="ts" x="54" y="603.5" fill="#6c7178">NOT NULL</text>
<circle cx="132" cy="600" r="2.6" fill="none" stroke="#a9aeb4" /><text class="ts" x="140" y="603.5" fill="#6c7178">nullable</text>
<rect x="210" y="593" width="15" height="11" rx="2.5" fill="#fbf0e3" stroke="#f0d8bd" /><text class="ts" x="232" y="603.5" fill="#6c7178">PK 기본키</text>
<rect x="300" y="593" width="15" height="11" rx="2.5" fill="#fbf0e3" stroke="#f0d8bd" /><text class="ts" x="322" y="603.5" fill="#6c7178">FK 외래키</text>
<rect x="390" y="593" width="15" height="11" rx="2.5" fill="#fbf0e3" stroke="#f0d8bd" /><text class="ts" x="412" y="603.5" fill="#6c7178">U 유니크</text>
<text class="ts" x="640" y="603.5" text-anchor="end" fill="#a0a4aa">Powered by Google</text>
</svg>